<svg id="dry" enable-background="new 0 0 512 512" viewBox="0 0 512 512" xmlns="http://www.w3.org/2000/svg">
    <g>
        <path d="m271 150.483v-15.483c0-8.284-6.716-15-15-15s-15 6.716-15 15v15.483c-95.332 6.095-180 73.032-180 164.517 0 8.284 6.716 15 15 15 5.493 0 10.282-2.962 12.896-7.366l.013.007-.081.135c.578-.93 14.537-22.776 47.172-22.776 32.021 0 46.062 21.029 47.126 22.701 2.665 4.683 7.481 7.578 12.874 7.578 5.392 0 10.208-2.894 12.873-7.576.876-1.375 10.649-16.002 32.127-21.017v165.314c0 8.271-6.729 15-15 15s-15-6.729-15-15c0-8.284-6.716-15-15-15s-15 6.716-15 15c0 24.813 20.187 45 45 45s45-20.187 45-45v-165.315c21.472 5.014 31.245 19.633 32.126 21.016 2.638 4.631 7.459 7.38 12.794 7.437.051 0 .102.001.153.001 5.298 0 10.132-2.932 12.835-7.498.134-.226 14.32-22.641 47.092-22.641 32.636 0 46.595 21.846 47.173 22.775l-.081-.135.012-.007c2.614 4.405 7.403 7.367 12.896 7.367 8.284 0 15-6.716 15-15 0-91.885-85.082-158.448-180-164.517zm45 141.851c-11.492-10.39-31.008-22.334-60-22.334-28.991 0-48.508 11.944-60 22.334-11.492-10.39-31.008-22.334-60-22.334-15.601 0-28.454 3.461-38.793 8.275 19.598-56.649 83.365-98.275 158.793-98.275s139.195 41.626 158.793 98.275c-10.339-4.814-23.192-8.275-38.793-8.275-28.991 0-48.508 11.944-60 22.334z"/>
        <path d="m266.607 55.607 30-30c5.858-5.858 5.858-15.355 0-21.213-5.857-5.858-15.355-5.858-21.213 0l-30 30c-5.858 5.858-5.858 15.355 0 21.213 5.856 5.857 15.355 5.858 21.213 0z"/>
        <path d="m176.607 55.607 30-30c5.858-5.858 5.858-15.355 0-21.213-5.857-5.858-15.355-5.858-21.213 0l-30 30c-5.858 5.858-5.858 15.355 0 21.213 5.856 5.857 15.355 5.858 21.213 0z"/>
        <path d="m86.607 55.607 30-30c5.858-5.858 5.858-15.355 0-21.213-5.857-5.858-15.355-5.858-21.213 0l-30 30c-5.858 5.858-5.858 15.355 0 21.213 5.856 5.857 15.355 5.858 21.213 0z"/>
        <path d="m356.607 55.607 30-30c5.858-5.858 5.858-15.355 0-21.213-5.857-5.858-15.355-5.858-21.213 0l-30 30c-5.858 5.858-5.858 15.355 0 21.213 5.856 5.857 15.355 5.858 21.213 0z"/>
        <path d="m446.607 55.607 30-30c5.858-5.858 5.858-15.355 0-21.213-5.857-5.858-15.355-5.858-21.213 0l-30 30c-5.858 5.858-5.858 15.355 0 21.213 5.856 5.857 15.355 5.858 21.213 0z"/>
        <path d="m365.394 145.607c5.857 5.858 15.355 5.859 21.213 0l30-30c5.858-5.858 5.858-15.355 0-21.213-5.857-5.858-15.355-5.858-21.213 0l-30 30c-5.859 5.858-5.859 15.355 0 21.213z"/>
        <path d="m95.394 145.607c5.857 5.858 15.355 5.859 21.213 0l30-30c5.858-5.858 5.858-15.355 0-21.213-5.857-5.858-15.355-5.858-21.213 0l-30 30c-5.859 5.858-5.859 15.355 0 21.213z"/>
        <path d="m56.607 94.394c-5.857-5.858-15.355-5.858-21.213 0l-31 31c-5.858 5.858-5.858 15.355 0 21.213 5.857 5.858 15.355 5.859 21.213 0l31-31c5.858-5.858 5.858-15.355 0-21.213z"/>
        <path d="m507.607 93.394c-5.857-5.858-15.355-5.858-21.213 0l-31 31c-5.858 5.858-5.858 15.355 0 21.213 5.857 5.858 15.355 5.859 21.213 0l31-31c5.858-5.858 5.858-15.355 0-21.213z"/>
    </g>
</svg>