<svg width="0" height="0" class="hidden">
  <symbol xmlns="http://www.w3.org/2000/svg" viewBox="0 0 512 512" id="calendar">
    <path d="M446 40h-46V16c0-8.836-7.163-16-16-16s-16 7.164-16 16v24H144V16c0-8.836-7.163-16-16-16s-16 7.164-16 16v24H66C29.607 40 0 69.607 0 106v340c0 36.393 29.607 66 66 66h380c36.393 0 66-29.607 66-66V106c0-36.393-29.607-66-66-66zm34 406c0 18.778-15.222 34-34 34H66c-18.778 0-34-15.222-34-34V181a5 5 0 015-5h438a5 5 0 015 5z"></path>
  </symbol>
  <symbol xmlns="http://www.w3.org/2000/svg" viewBox="0 0 294.465 294.465" id="drop">
    <path d="M174.432 32.465c-6.8-10-12.8-19.2-18.4-27.6-.8-1.2-2-2.4-3.2-3.2-4.8-3.2-11.2-1.6-14.4 3.2-5.2 8.4-11.2 17.2-18.4 27.6-31.6 46.4-78.8 116.4-78.8 156.4 0 29.2 12 55.6 31.2 74.8 19.2 18.8 45.6 30.8 74.8 30.8s55.6-12 74.8-31.2c19.2-19.2 31.2-45.6 31.2-74.8 0-40-47.2-109.6-78.8-156zm33.2 216.4c-15.6 15.6-36.8 24.8-60.4 24.8s-44.8-9.6-60.4-24.8c-15.6-15.6-24.8-36.8-24.8-60.4 0-33.6 45.2-100.4 75.2-144.8 3.6-5.2 6.8-10.4 10-14.8 3.2 4.4 6.4 9.6 10 14.8 30 44.8 75.2 111.2 75.2 144.8 0 23.6-9.6 44.8-24.8 60.4z"></path>
    <path d="M209.232 181.265c-5.6-.4-10.4 4-10.8 9.6-.4 8.8-3.2 17.2-7.6 24.4-4.4 7.2-10.8 13.6-18.4 17.6-4.8 2.8-6.8 9.2-4 14 3.2 5.6 9.6 7.2 14.4 4.4 10.8-6 19.6-14.8 25.6-24.8 6.4-10 10-22 10.4-34.4.4-5.6-4-10.4-9.6-10.8z"></path>
  </symbol>
  <symbol xmlns="http://www.w3.org/2000/svg" viewBox="0 0 512 512" id="dry">
    <path d="M271 150.483V135c0-8.284-6.716-15-15-15s-15 6.716-15 15v15.483C145.668 156.578 61 223.515 61 315c0 8.284 6.716 15 15 15 5.493 0 10.282-2.962 12.896-7.366l.013.007-.081.135C89.406 321.846 103.365 300 136 300c32.021 0 46.062 21.029 47.126 22.701 2.665 4.683 7.481 7.578 12.874 7.578 5.392 0 10.208-2.894 12.873-7.576.876-1.375 10.649-16.002 32.127-21.017V467c0 8.271-6.729 15-15 15s-15-6.729-15-15c0-8.284-6.716-15-15-15s-15 6.716-15 15c0 24.813 20.187 45 45 45s45-20.187 45-45V301.685c21.472 5.014 31.245 19.633 32.126 21.016 2.638 4.631 7.459 7.38 12.794 7.437l.153.001c5.298 0 10.132-2.932 12.835-7.498.134-.226 14.32-22.641 47.092-22.641 32.636 0 46.595 21.846 47.173 22.775l-.081-.135.012-.007C425.718 327.038 430.507 330 436 330c8.284 0 15-6.716 15-15 0-91.885-85.082-158.448-180-164.517zm45 141.851C304.508 281.944 284.992 270 256 270c-28.991 0-48.508 11.944-60 22.334C184.508 281.944 164.992 270 136 270c-15.601 0-28.454 3.461-38.793 8.275C116.805 221.626 180.572 180 256 180s139.195 41.626 158.793 98.275C404.454 273.461 391.601 270 376 270c-28.991 0-48.508 11.944-60 22.334zM266.607 55.607l30-30c5.858-5.858 5.858-15.355 0-21.213-5.857-5.858-15.355-5.858-21.213 0l-30 30c-5.858 5.858-5.858 15.355 0 21.213 5.856 5.857 15.355 5.858 21.213 0zm-90 0l30-30c5.858-5.858 5.858-15.355 0-21.213-5.857-5.858-15.355-5.858-21.213 0l-30 30c-5.858 5.858-5.858 15.355 0 21.213 5.856 5.857 15.355 5.858 21.213 0zm-90 0l30-30c5.858-5.858 5.858-15.355 0-21.213-5.857-5.858-15.355-5.858-21.213 0l-30 30c-5.858 5.858-5.858 15.355 0 21.213 5.856 5.857 15.355 5.858 21.213 0zm270 0l30-30c5.858-5.858 5.858-15.355 0-21.213-5.857-5.858-15.355-5.858-21.213 0l-30 30c-5.858 5.858-5.858 15.355 0 21.213 5.856 5.857 15.355 5.858 21.213 0zm90 0l30-30c5.858-5.858 5.858-15.355 0-21.213-5.857-5.858-15.355-5.858-21.213 0l-30 30c-5.858 5.858-5.858 15.355 0 21.213 5.856 5.857 15.355 5.858 21.213 0zm-81.213 90c5.857 5.858 15.355 5.859 21.213 0l30-30c5.858-5.858 5.858-15.355 0-21.213-5.857-5.858-15.355-5.858-21.213 0l-30 30c-5.859 5.858-5.859 15.355 0 21.213zm-270 0c5.857 5.858 15.355 5.859 21.213 0l30-30c5.858-5.858 5.858-15.355 0-21.213-5.857-5.858-15.355-5.858-21.213 0l-30 30c-5.859 5.858-5.859 15.355 0 21.213zM56.607 94.394c-5.857-5.858-15.355-5.858-21.213 0l-31 31c-5.858 5.858-5.858 15.355 0 21.213 5.857 5.858 15.355 5.859 21.213 0l31-31c5.858-5.858 5.858-15.355 0-21.213zm451-1c-5.857-5.858-15.355-5.858-21.213 0l-31 31c-5.858 5.858-5.858 15.355 0 21.213 5.857 5.858 15.355 5.859 21.213 0l31-31c5.858-5.858 5.858-15.355 0-21.213z"></path>
  </symbol>
  <symbol xmlns="http://www.w3.org/2000/svg" viewBox="0 0 512 512" id="pin">
    <path d="M407.579 87.677C376.506 34.053 321.314 1.292 259.939.04c-2.62-.054-5.257-.054-7.878 0-61.374 1.252-116.566 34.013-147.64 87.637-31.762 54.812-32.631 120.652-2.325 176.123l126.963 232.387c.057.103.114.206.173.308 5.586 9.709 15.593 15.505 26.77 15.505 11.176 0 21.183-5.797 26.768-15.505.059-.102.116-.205.173-.308L409.906 263.8c30.304-55.471 29.435-121.311-2.327-176.123zM256 232c-39.701 0-72-32.299-72-72s32.299-72 72-72 72 32.299 72 72-32.298 72-72 72z"></path>
  </symbol>
  <symbol xmlns="http://www.w3.org/2000/svg" viewBox="0 -3 410.75 410" id="wind">
    <path d="M232.723 141.012c-1.067 0-2.145-.004-3.235-.024a6.825 6.825 0 01-6.722-6.93c.039-2.624 1.472-64.695 44.554-106.48 9.633-9.344 22.317-14.441 35.743-14.172 13.414.203 25.953 5.621 35.292 15.254 9.344 9.633 14.375 22.324 14.172 35.742-.199 13.211-5.453 25.567-14.812 34.864-3.973 5.351-33.625 41.742-104.992 41.746zm44.101-103.633c-31.07 30.137-38.273 73.254-39.922 89.934 65.164-1.434 89.75-36.024 89.996-36.387a6.6 6.6 0 01.868-1.028c7.015-6.804 10.96-15.933 11.109-25.703.148-9.773-3.52-19.015-10.32-26.027-6.805-7.016-15.93-10.961-25.703-11.11-9.793-.175-19.016 3.52-26.028 10.32zM6.82 342.02a6.795 6.795 0 01-4.008-1.31c-3.046-2.214-3.726-6.487-1.503-9.534.796-1.098 81.043-109.29 204.359-89.543 122.316 19.574 163.883 18.012 185.64-29.852 11.376-25.027 5.743-46.172-15.066-56.558-20.37-10.168-50.773-5.7-64.37 19.246a6.83 6.83 0 01-11.99-6.543c17.5-32.078 56.423-37.914 82.458-24.918 20.765 10.36 38.828 36.07 21.394 74.422-26.75 58.84-81.55 56.668-200.23 37.68-115.09-18.395-190.41 83.07-191.16 84.093a6.793 6.793 0 01-5.524 2.817zm9.653-72.352a6.826 6.826 0 01-5.266-11.164c2.848-3.465 71.152-84.602 189.125-74.813a6.825 6.825 0 016.234 7.368c-.312 3.757-3.601 6.562-7.37 6.238C88.5 188.03 22.397 266.395 21.737 267.187a6.821 6.821 0 01-5.265 2.481zm0 0"></path>
    <path d="M284.219 405.54c-3.153 0-6.317-.364-9.45-1.103-15.335-3.62-26.503-14.773-33.187-33.148a6.83 6.83 0 014.086-8.75c3.535-1.297 7.457.535 8.75 4.086 5.078 13.973 12.762 21.992 23.488 24.523 8.305 1.961 16.992-.043 23.883-5.503 7.348-5.813 11.734-14.852 11.734-24.184 0-15.496-8.226-29.629-21.468-36.887-15.254-8.36-43.696-18.816-92.614-21.148-94.406-4.528-108.629 56.695-108.757 57.312-.793 3.684-4.41 6.059-8.11 5.246a6.83 6.83 0 01-5.246-8.105c.156-.734 16.953-73.215 122.762-68.094 41.367 1.973 74.512 9.649 98.527 22.813 17.613 9.656 28.559 28.382 28.559 48.863 0 13.668-6.168 26.39-16.914 34.89-7.606 6.02-16.75 9.188-26.043 9.188zM267.29 110.5a6.776 6.776 0 01-2.888-.645 6.827 6.827 0 01-3.297-9.07C262.531 97.73 296.773 25.652 361.31.832c3.511-1.355 7.46.398 8.824 3.922a6.824 6.824 0 01-3.926 8.82c-59.316 22.817-92.402 92.29-92.73 92.989a6.833 6.833 0 01-6.188 3.937zm0 0"></path>
  </symbol>
</svg>